HIERARCHY
ROOT Hips
{
	OFFSET 0.000000 0.000000 0.000000
	CHANNELS 6 Xposition Yposition Zposition Zrotation Yrotation Xrotation 
	JOINT LHipJoint
	{
		OFFSET 0.000000 0.000000 0.000000
		CHANNELS 3 Zrotation Yrotation Xrotation
		JOINT LeftUpLeg
		{
			OFFSET 1.363060 -1.794630 0.839290
			CHANNELS 3 Zrotation Yrotation Xrotation
			JOINT LeftLeg
			{
				OFFSET 2.448110 -6.726130 0.000000
				CHANNELS 3 Zrotation Yrotation Xrotation
				JOINT LeftFoot
				{
					OFFSET 2.562200 -7.039590 0.000000
					CHANNELS 3 Zrotation Yrotation Xrotation
					JOINT LeftToeBase
					{
						OFFSET 0.157640 -0.433110 2.322550
						CHANNELS 3 Zrotation Yrotation Xrotation
						End Site
						{
							OFFSET 0.000000 0.000000 0.000000
						}
					}
				}
			}
		}
	}
	JOINT RHipJoint
	{
		OFFSET 0.000000 0.000000 0.000000
		CHANNELS 3 Zrotation Yrotation Xrotation
		JOINT RightUpLeg
		{
			OFFSET -1.305520 -1.794630 0.839290
			CHANNELS 3 Zrotation Yrotation Xrotation
			JOINT RightLeg
			{
				OFFSET -2.542530 -6.985550 0.000000
				CHANNELS 3 Zrotation Yrotation Xrotation
				JOINT RightFoot
				{
					OFFSET -2.568260 -7.056230 0.000000
					CHANNELS 3 Zrotation Yrotation Xrotation
					JOINT RightToeBase
					{
						OFFSET -0.164730 -0.452590 2.363150
						CHANNELS 3 Zrotation Yrotation Xrotation
						End Site
						{
							OFFSET 0.000000 0.000000 0.000000
						}
					}
				}
			}
		}
	}
	JOINT LowerBack
	{
		OFFSET 0.000000 0.000000 0.000000
		CHANNELS 3 Zrotation Yrotation Xrotation
		JOINT Spine
		{
			OFFSET 0.028270 2.035590 -0.193380
			CHANNELS 3 Zrotation Yrotation Xrotation
			JOINT Spine1
			{
				OFFSET 0.056720 2.048850 -0.042750
				CHANNELS 3 Zrotation Yrotation Xrotation
				JOINT Neck
				{
					OFFSET 0.000000 0.000000 0.000000
					CHANNELS 3 Zrotation Yrotation Xrotation
					JOINT Neck1
					{
						OFFSET -0.054170 1.746240 0.172020
						CHANNELS 3 Zrotation Yrotation Xrotation
						JOINT Head
						{
							OFFSET 0.104070 1.761360 -0.123970
							CHANNELS 3 Zrotation Yrotation Xrotation
							End Site
							{
								OFFSET 0.000000 0.000000 0.000000
							}
						}
					}
				}
				JOINT LeftShoulder
				{
					OFFSET 0.000000 0.000000 0.000000
					CHANNELS 3 Zrotation Yrotation Xrotation
					JOINT LeftArm
					{
						OFFSET 3.362410 1.200890 -0.311210
						CHANNELS 3 Zrotation Yrotation Xrotation
						JOINT LeftForeArm
						{
							OFFSET 4.983000 -0.000000 -0.000000
							CHANNELS 3 Zrotation Yrotation Xrotation
							JOINT LeftHand
							{
								OFFSET 3.483560 -0.000000 -0.000000
								CHANNELS 3 Zrotation Yrotation Xrotation
								JOINT LeftFingerBase
								{
									OFFSET 0.000000 0.000000 0.000000
									CHANNELS 3 Zrotation Yrotation Xrotation
									JOINT LeftHandIndex1
									{
										OFFSET 0.715260 -0.000000 -0.000000
										CHANNELS 3 Zrotation Yrotation Xrotation
										End Site
										{
											OFFSET 0.000000 0.000000 0.000000
										}
									}
								}
								JOINT LThumb
								{
									OFFSET 0.000000 0.000000 0.000000
									CHANNELS 3 Zrotation Yrotation Xrotation
									End Site
									{
										OFFSET 0.000000 0.000000 0.000000
									}
								}
							}
						}
					}
				}
				JOINT RightShoulder
				{
					OFFSET 0.000000 0.000000 0.000000
					CHANNELS 3 Zrotation Yrotation Xrotation
					JOINT RightArm
					{
						OFFSET -3.136600 1.374050 -0.404650
						CHANNELS 3 Zrotation Yrotation Xrotation
						JOINT RightForeArm
						{
							OFFSET -5.241900 -0.000000 -0.000000
							CHANNELS 3 Zrotation Yrotation Xrotation
							JOINT RightHand
							{
								OFFSET -3.444170 -0.000000 -0.000000
								CHANNELS 3 Zrotation Yrotation Xrotation
								JOINT RightFingerBase
								{
									OFFSET 0.000000 0.000000 0.000000
									CHANNELS 3 Zrotation Yrotation Xrotation
									JOINT RightHandIndex1
									{
										OFFSET -0.622530 -0.000000 -0.000000
										CHANNELS 3 Zrotation Yrotation Xrotation
										End Site
										{
											OFFSET 0.000000 0.000000 0.000000
										}
									}
								}
								JOINT RThumb
								{
									OFFSET 0.000000 0.000000 0.000000
									CHANNELS 3 Zrotation Yrotation Xrotation
									End Site
									{
										OFFSET 0.000000 0.000000 0.000000
									}
								}
							}
						}
					}
				}
			}
		}
	}
}
MOTION
Frames: 5
Frame Time: 0.008333
2.013488 17.307414 0.785520 8.582895 -55.074961 -2.826239 -8.617024 3.458761 6.826244 -8.055372 -6.519172 -6.847921 -2.731791 -1.460719 -2.346627 0.054697 3.537359 6.661204 1.309900 -0.000000 -47.203600 12.394507 -3.740031 -0.513194 -3.865047 -29.904634 4.355572 1.108585 0.971761 -4.809657 -2.566621 -17.646763 6.079241 -5.088800 0.000000 -66.935500 -6.039766 1.743990 -9.233217 -1.845736 2.128777 -4.466210 -3.342081 2.056597 -0.084858 -1.928486 -6.528617 -6.987789 -0.178523 -0.026057 0.234264 0.000000 0.000000 0.000000 7.795493 11.799647 -2.020208 -21.876192 -30.867299 -8.037180 179.313436 -76.690012 179.978372 0.032969 -6.413994 0.008393 0.179031 0.708733 0.000000 0.000000 0.000000 0.000000 0.000000 0.000000 0.000000 -9.628338 -0.213357 3.380848 1.951305 43.814510 -45.014564 -0.613214 -0.282012 -0.043342 -10.353347 3.163150 -0.323556 0.258181 -0.318310 -0.000000 0.000000 0.000000 0.000000 0.000000 0.000000 0.000000 
2.017714 17.307668 0.772845 8.521118 -55.025369 -2.694126 -8.620691 3.460699 6.850050 -7.962692 -6.710058 -6.912961 -2.718126 -1.455997 -2.455874 0.068030 3.644996 6.747241 1.341801 -0.000000 -47.204400 12.377196 -3.714014 -0.523279 -3.700860 -29.771290 4.347313 1.098363 0.990353 -4.897494 -2.598385 -17.833632 6.014188 -5.133700 -0.000001 -66.737900 -5.966643 1.635185 -9.237294 -1.811073 2.012274 -4.468751 -3.318065 1.943357 -0.092153 -2.022311 -6.916001 -6.919848 -0.086002 -0.020766 0.257158 0.000000 0.000000 0.000000 7.385126 11.628414 -1.942358 -21.577205 -30.280007 -8.326215 179.313085 -76.226561 179.977170 0.199368 -6.387897 -0.002402 0.172204 0.711797 -0.000000 0.000000 0.000000 0.000000 0.000000 0.000000 0.000000 -10.326009 -0.504078 3.099308 4.154812 43.763441 -43.224918 -0.732045 3.277213 -0.036738 -8.028024 3.670843 -0.288990 0.189939 -0.348318 -0.000000 0.000000 0.000000 0.000000 0.000000 0.000000 0.000000 
2.022436 17.308073 0.760533 8.461190 -55.013903 -2.565822 -8.621586 3.471296 6.872161 -7.877530 -6.842104 -6.996871 -2.706978 -1.450074 -2.555184 0.077547 3.714021 6.836441 1.364500 -0.000001 -47.218900 12.362342 -3.684825 -0.512256 -3.521309 -29.560309 4.312533 1.079569 1.010144 -4.950249 -2.640510 -18.070067 5.920899 -5.186600 -0.000001 -66.514000 -5.920622 1.500020 -9.261016 -1.804849 1.866374 -4.476584 -3.382327 1.803505 -0.089330 -1.892618 -7.192697 -6.827779 -0.081321 -0.022217 0.285898 0.000000 0.000000 0.000000 7.135025 11.470593 -1.856259 -21.267444 -29.620299 -8.596142 179.319755 -75.688547 179.976322 0.345876 -6.349242 -0.011898 0.164462 0.715625 0.000000 0.000000 0.000000 0.000000 0.000000 0.000000 0.000000 -10.437711 -0.739045 2.828582 5.889200 43.267712 -38.508594 -0.770082 7.842232 -0.031517 -6.217886 3.734208 -0.228300 0.137948 -0.373044 -0.000000 0.000000 0.000000 0.000000 0.000000 0.000000 0.000000 
2.027301 17.308292 0.748339 8.410278 -55.061357 -2.455836 -8.616765 3.491199 6.896677 -7.802246 -6.924560 -7.074273 -2.698030 -1.445542 -2.671539 0.086040 3.774984 6.932578 1.386000 0.000000 -47.249100 12.352499 -3.653756 -0.480336 -3.343247 -29.293198 4.253624 1.056392 1.031110 -4.970560 -2.684854 -18.306957 5.795575 -5.230400 -0.000001 -66.275600 -5.921082 1.341308 -9.305961 -1.816653 1.699021 -4.493524 -3.475460 1.641606 -0.089086 -1.614353 -7.218497 -6.688728 -0.145832 -0.029469 0.326793 0.000000 0.000000 0.000000 7.036689 11.326921 -1.754710 -21.024521 -28.886089 -8.813661 179.336560 -75.106663 179.975992 0.456838 -6.297549 -0.019090 0.156139 0.719500 -0.000000 0.000000 0.000000 0.000000 0.000000 0.000000 0.000000 -10.095041 -0.782635 2.581577 7.000833 42.183413 -33.039276 -0.793058 13.182842 -0.029986 -5.331501 3.708438 -0.195100 0.106495 -0.397826 -0.000000 0.000000 0.000000 0.000000 0.000000 0.000000 0.000000 
2.032160 17.308275 0.736218 8.377378 -55.183053 -2.361049 -8.614708 3.516615 6.910518 -7.738693 -6.907063 -7.167825 -2.691929 -1.440883 -2.778728 0.089922 3.790758 7.023253 1.395600 -0.000000 -47.303700 12.342539 -3.620885 -0.430741 -3.164215 -28.970764 4.168336 1.031612 1.053636 -4.974665 -2.728079 -18.526433 5.648618 -5.262499 -0.000000 -66.037700 -5.931329 1.168037 -9.357405 -1.826681 1.519288 -4.515674 -3.555084 1.465829 -0.097085 -1.322047 -7.132310 -6.517131 -0.233548 -0.038977 0.376761 0.000000 0.000000 0.000000 6.964901 11.228807 -1.635879 -20.796345 -28.105430 -9.009466 179.363484 -74.521900 179.976056 0.537506 -6.244883 -0.024380 0.147497 0.722856 0.000000 0.000000 0.000000 0.000000 0.000000 0.000000 0.000000 -9.605482 -0.757234 2.313023 7.705531 41.012307 -28.845446 -0.854880 18.547383 -0.031991 -5.164510 4.035049 -0.204609 0.086918 -0.426564 -0.000000 0.000000 0.000000 0.000000 0.000000 0.000000 0.000000 
